<?xml version="1.0" encoding="utf-8"?>
<!-- Generator: Adobe Illustrator 24.3.0, SVG Export Plug-In . SVG Version: 6.00 Build 0)  -->
<svg version="1.1" id="Layer_1" xmlns="http://www.w3.org/2000/svg" xmlns:xlink="http://www.w3.org/1999/xlink" x="0px" y="0px"
	 viewBox="0 0 848.2 654.6" style="enable-background:new 0 0 848.2 654.6;" xml:space="preserve">
<style type="text/css">
	.st0{fill:#FFFFFF;}
	.st1{fill:#FF3C00;}
	.st2{fill:#311D00;}
</style>
<g>
	<path class="st0" d="M607.9,188.6c0-10.6-6-18.2-11.3-18.9c0,0-2-0.5-3.5,0.5c-0.2,0.2-0.2,0.2-0.3,0.3c0,0.2-0.2,0.2-0.2,0.2
		c-0.2,0.2-0.3,0.3-0.5,0.7c-0.5,0.8-1,2.2-1,4.3c0,1.2,0.2,2.3,0.3,3.8c0,0,0,0.2,0,0.3c0.2,0.2,0.2,0.7,0.3,1.2
		c0.3,1.5,1.3,3.6,2.8,5.8c0.2,0.3,0.5,0.7,0.8,1c0.8,1.3,2.2,2.8,4,4.5c0,0-0.5,3.6,0.5,8l0.2,0.5c1.2,3.5,2.3,6.1,4.8,9
		c6,6.8,11.9,2.3,10.1-6h0c-1.7-7.5-4-10.4-7.1-13.8V188.6z M600.8,189.1c-3.2-2-7.8-8.6-7-14.1C601,175,603,185.4,600.8,189.1z
		 M608.1,208.5c-3.6-3.6-5.5-7.5-5.8-13.3C607.9,196.4,611.6,203.5,608.1,208.5z M355.7,474.9c0,0,0.5,1.5,1.7,3.6
		c1,2,2.8,3.6,4.6,4.8c13.9,8.3,21.7-2.2,21.7-2.3c0.2-0.2,6.5-8.5-2.8-17.6c-0.2-0.2-6-5.3-13.6-4.3c-0.8-3.2-4.8-12.1-16.4-11.8
		c-9.3,0.5-11.4,5.6-12.4,8.5h0c0,0-2.3,6.3,0.8,11.9C339.5,468,344,476.8,355.7,474.9z M368.2,461.3c10.3-0.3,18.6,10.1,13.3,17.7
		l-1.8,0.3c-9.1,1.3-14.3-2.3-15.8-10.4v0C365.4,468,367.7,465.2,368.2,461.3z M353.4,460.8c0-4,0.8-7.5,2.5-10.4
		c5.1,1.7,9,6.1,8.6,10.8h0.7c-0.5,3.5-4,8.1-11.3,7c-0.3-1.5-0.5-3-0.5-4.6c1.2,0.3,2.5,0.5,4,0.5h0c0-0.7,0.2-2,0.2-2
		C356.1,462,354.7,461.5,353.4,460.8z M344,452.6c2.3-2,4.1-2.8,7.6-2.7c-1.3,2.3-2,5.8-2.2,9.3c-0.7-0.5-1.3-0.5-2-1.3v2.5
		c0.5,0.8,1.2,1,2.2,1.7c0,2.2,0,3.8,0.5,5.3c-0.5-0.2-0.8-0.7-1.3-0.8v0C341.5,462.3,344,452.6,344,452.6z M341.3,455.7
		c-1.2,15.1,12.6,17.2,20.2,14.4c1.7,12.1,12.3,12.4,17.4,11.6c-6.5,4.1-18.7,1.3-21.1-10.1C348.1,474.6,337.2,466.8,341.3,455.7z
		 M194.4,591.2c-0.8,0.7-1.8,1.3-3,2.2c-12.8,9.1-42.4,20.2-69,22.7c-26.9,4.3-41.9-14.6-36.6-28.9c0,0,0,0-1.5-3.6
		c-1.5-3.5-18.7-38.6-16.7-53.9c14.3,26,26.7,42.8,30.5,46.6c0.2,0.7,0.3,1.2,0.5,1.8c-0.3,3.8,0.5,15.1,22.5,10.9
		c-6.6,12.9-31.7,5.8-26.9-11.3c-3.6-4.5-12.4-18.9-12.4-18.9c-0.3,0.2,0.5,4.3,0.3,4c3,6.1,8.1,16.9,8.1,16.9
		c-4,25,32.2,27,34.7,8.6h0.2c1.8-0.3,1.8,0,3.2-0.7c-1.5,7.5-5.1,11.6-9.5,13.8c-7.8,4-9.9,10.8,1.8,9.9c11.9-0.8,33.2-4.1,58-16.4
		l5.3-2.8c-10.6-6.6-21.7-7.8-29.3-8.3c-6-0.5-15.4,1.2-22.4,2.7c0.5-0.2,0.8-0.3,1.3-0.5C162.6,576.1,180.2,582,194.4,591.2z
		 M589.2,308.1c-17.6,12.9-23.2,58-17.9,82.1C557,374.5,564,311.3,589.2,308.1z M840.7,521c-6.9-36.5-16.9-72.5-29.4-107.3
		c-4.8-13.9-16.9-23.2-30.4-23.2c-0.5,0-0.9,0-1.4,0c-0.9,0-1.9,0.2-2.8,0.3c-9.3,1.9-54.7,5.5-70,6.4c-1.7,0-3.3,0-4.8,0h-1.2h-1.2
		c-8.5,0-17.8,0-28-1.4c-6.4-15.3-12.8-30.1-18.9-44.4c-5.9-13.8-11.9-28.1-18.2-42.7c7.1-3.3,13.1-8.1,17.3-14.1
		c5.9-7.7,8.1-16.5,9-24.8c0.3,0,0.7,0,1,0c10.2,0,19.4-3.6,25.9-10.3c9.2-9.5,10.4-24.6,3.1-37.9c-4.2-7.4-8.3-14.8-12.3-22
		c-6.9-12.4-14.2-25.3-21.1-38.2c-2.8-5.2-8.1-8.3-13.7-8.3c-1.9,0-3.8,0.3-5.7,1l-2.6,1c-0.2,0-0.3,0.2-0.5,0.2l-8.8,4
		c-14.5-24.4-32-46.8-51.9-66.6c-22.3-22.2-47.6-40.6-74.5-54.7C458.8,16.2,410.2,3.1,359,0c-0.2,0-0.5,0-0.9,0h-31.8
		c-0.3,0-0.5,0-0.9,0c-65.5,3.6-128,23.2-180.4,57c-26.5,17-50.2,37.4-70,61.1c-20.8,23.9-37.4,50.4-49.5,78.7
		C3.5,248.1-4.5,307,2.4,366.7C9.2,421.8,25.1,474.5,50,523c-0.7,6.7-0.3,13.4,1,20v0.2c3.6,15.2,9.5,28.8,16.3,43.6v0.2
		c0,0.5,0,1.5,0,2.2c0,3.6-0.2,8.4,1.9,13.8c5.4,15.2,19.7,26.9,36.7,29.6c3.5,0.7,7.3,1,11.2,1c7.4,0,14.5-1.2,20.9-2.4
		c1-0.2,1.9-0.3,2.9-0.5h0.2c21.8-4.1,41.3-11,58.1-20.7c36.3,26.3,81.1,42,127.5,44.4h0.2c3.1,0.2,6.2,0.2,9.3,0.2
		c34.2,0,64-7.4,88.4-22.2c12.1-7.4,23.2-17,32-28.1c4.5,0.5,9.3,0.7,14.4,0.7c12.6,0,24.7-1.4,33.9-2.6c14.5-1.9,27.7-6,41.9-13.1
		c15,18.9,33.6,32.9,56.2,42.2c24.9,10.5,52.7,15.8,82.8,15.8c12.6,0,25.6-1,38.7-2.9c0.2,0,0.2,0,0.3,0c3.1-0.5,7.3-1.2,11.8-1.9
		c11.6-1.9,24.9-4,30.8-5.2c5.5-1,10.7-3.3,13-4.3c2.1-0.5,5.9-1.4,9.7-2.2c21.3-4.6,53.6-11.5,57.8-37.2c0.3-2.2,0.5-4.3,0.3-6.4
		C848.8,565.4,845.4,544.2,840.7,521z M770.3,411.6c3-0.8,8.6-1.7,8.8-1.8c4.3,0.8,6.1,3.3,6.6,6.8c0.2,1.3-0.5,6.3-6,7.3l-2,0.5
		c-5,1.7-14.8,4-24.7,5.8c-6.1,1.2-11.8,2.3-11.3,2c-1.3-2.8-2.2-5.8-6-13.1C746.7,417.2,760.6,414.4,770.3,411.6L770.3,411.6z
		 M791.8,479.4c0,0,16.6-5.6,20.2,7.1c0,0,3.5,10.8-5.8,14.8c0,0-7,3.6-38.8,9.3c0,0-2.7-9.9-3.8-15.1c0,0,27-5.6,37.5-9.6
		c0,0-0.3-3.6-5.5-3.5c0,0-27.4,6.8-33.7,7.5l-1.5-4.1C760.5,485.7,784,481.2,791.8,479.4L791.8,479.4z M757.7,410.1
		c-4.5,1.8-25.5,4.5-25.5,4.5c-2.8-2.3-5.8-2.7-6.5-2.7C733.8,412.4,757.7,410.1,757.7,410.1z M713.4,413.1
		c-4.5,0.7-4.8,4.8-4.8,4.8v0c-10.8,2.7-35.8,5.5-35.8,5.5l-5.1-11.8C693.8,415.2,713.4,413.1,713.4,413.1z M645.9,166.5l32.2,58
		l0,0c15.1,23.7-9.8,33.5-23.5,26.4c-1.8,1-3.2,1.8-4.1,2.8c-0.8,0.7-1.5,1.5-2.2,2.3c0.7,7.8,0,17.6-4,24.9
		c-4.8,8.5-11.3,14.1-23.5,16.2c-0.3,0-1,0.2-1.8,0.2c-0.3,0-0.8,0.2-1.2,0.2c-1,0.2-1.8,0.2-2.7,0.3
		c12.4,29.5,53.2,126.2,53.2,126.2c-7.8,1.3-16.4,2-16.4,2l-51.6-121c-1.3,1.3-2.2,2.5-2.7,3.2c-0.5,0.7-1,1.2-1.5,1.8
		c-8,9.9-12.8,22.9-15.6,36.6c-0.2,0.8-0.5,2.3-0.8,4.1c24.2,37.5,57,51.4,57,51.4l8.1,19.9c-32.5-9.5-59.7-39-67.3-47.8
		c0,0.8,0,1.7,0,2.5c0,16.4,2,32,4.6,43.1c1.7,4.8,3,9.8,4.1,14.6c-3.8,0.5-7.5,0.8-11.1,1.2c-2.5-9.6-5.6-18.9-9.1-27.2
		c-18.2-43.4-68.5-23.5-65,2.7c-15.3-33.8-30.8-68.1-42.4-93.8c4.5-5,13.6-14.1,28.2-23.5c-10.3,4.5-18.4,11.6-18.4,11.6
		c-4,3.2-7.6,6.3-10.9,9.6c-0.8-2-1.7-3.8-2.5-5.6c0.1-0.1,0.2-0.2,0.3-0.3c-2.9-6.5-5.5-12.2-7.6-16.9c7.5-4.8,15.1-9.8,24.7-13.3
		c27.8-11.4,59.8-19,90.5-25.5c0,0,0-0.1,0-0.1c1.7-0.3,3.5-0.7,5.1-1c1,15.4-6.8,21.2-20.2,24c-8.6,1.8-15.8,2.2-19.4,3.3l8.3,0.3
		c0.5,0,9.6-0.2,22.4-4.5c8.3-3.2,14.6-8.8,11.9-23.9c1.5-0.2,2.8-0.5,4.3-0.8c2.3,14.4,0.2,28.4-27.7,31c4.8,3.2,48.2-4.8,74.3,1.2
		c0.5,0.2,11.4,4-1,9.5c24.2-5.3,25.5-29.5,20.9-47.4l1,0.2c4.5,0.3,8.3,1,11.4,1.5c2.3,0.3,5.1,0.7,8.1,1
		c18.1,1.8,16.4-19.4,7-22.2c-7.3-2.2-9.1-2.2-10.9-2.5l-2.5-0.3l-22.5-50.2L645.9,166.5z M433,415.6c-0.5-0.3-0.8-0.7-1.3-1
		c-1.7-1.5-3.3-3.2-5.1-4.8h0c0-0.1,0-0.2,0-0.3c-11.7-11.3-27.1-27-37.6-38.1c14.9-23.9,29.2-46.8,29-46.8c4-6.1,8-12.4,10.3-15.8
		l9.9,22.1c0,0,0,0.1-0.1,0.1l2.9,6.3C427.7,362,427.9,389.5,433,415.6z M420.7,293c1.7,3.3,5.1,11.9,5.1,11.9
		c0.7-0.5-7.6,9.8-12.3,17.1l-27.9,45.8l-7.5-8.3h0c0,0-3.3-4-6.5-3.8c14.6-23.7,28-44.8,32.5-51.6c4.8-7.8,16.1-21.2,14.6-19.4
		C418.9,284.8,418.6,288.7,420.7,293z M443.3,343l43.4,95.5h0c-20.1-2.2-33-8-46.9-17.7C434.8,394.7,433.3,368.2,443.3,343z
		 M424.4,289.7c-1.5-2.7-1.5-5.3,0-8c2-3.3,6.1-5.3,8.8-5.3c2,0,3.6,0.7,3.8,0.8l73.3,162.3c0,0-10.1,0.5-18.1-1.2v0
		C460.9,370.1,424.4,290.1,424.4,289.7z M573.4,194.9l10.3,28.9l-5.5,1c0,0-6.8-18.6-10.9-31.3c-3.2-9.6-0.8-14.4-0.8-14.4l5-2.3
		C569.1,183.8,573.4,194.9,573.4,194.9z M583.4,182c3.2,8.6,19.7,43.3,21.7,48.2c9.6,25-15.3,29.7-17.9,18.6
		c26.4-2.2,15.8-29.8,0.7-25.9c-5.8-14.3-10.3-28.4-10.3-28.4h0c0,0-6-15.3-2-19.9l5.5-2.8l0.5-0.2c-0.2,0.5-0.2,2-0.2,2
		C581.2,175.5,581.4,176.5,583.4,182z M610.4,246.1c0,0,12.6,0,19.1,0.2c0,0-4.6,9-24.9,7.5C604.6,253.7,610.1,250.1,610.4,246.1z
		 M588.7,228c5.1-0.7,9.5,2.8,9.9,6.5c0.5,3.3-1.2,7.1-7.5,8.1l-3,0.5c-38.3,7.6-81.6,16.2-117.9,31c-11.4,4.1-17.4,7.6-23.9,12.4
		c0,0-3.5-7.8-4.8-9.9v0c-2-3.5-2.3-3.8-4-4.6c5.3-3.6,12.1-7,21.2-10.8C485.6,250.1,540.9,235.8,588.7,228z M632.5,224.1
		c8.3,0.8,29.7,3.3,34.2,4.8h0.2h0.2c3.3,0.5,5.1,4.6,4.8,8c-0.2,1.8-1.2,6-7.5,6c-5.6-1.2-20.4-2.7-27.9-3.3h0
		C636.5,233.2,632.6,224.2,632.5,224.1z M491,591.3c0,0-22.9,3.2-41.3-0.7c-45.9,70.3-170.6,65.7-246.9,6.1c-1.3-1-2.8-2.2-4.3-3.2
		c-5.1,4-27.7,19.6-70.6,26.2c-36.1,7-51.1-16.4-46.8-32.3c-10.8-23.5-13.8-31.7-17.2-44.9c-2.2-9.3-0.8-16.2,0.2-20.1
		C53.3,502,42,476.6,32.9,447.4C-97.2,32.7,443.1-141,618.7,172.5c0.7,0.2,1.3,0.2,2,0.3c2.2,0.3,3.6,1.3,4.5,3l4.8-2l21.1,48.2
		c-2.7-0.5-9.8-1.2-11.6-1.3c0,0.2-5.3-0.2-5.3-0.2c-4.6-14.3-10.6-32.3-14.8-42.8c-2.3-0.7-6.5-0.7-7.5-0.7c0,0.2,0.2,0.2,0.2,0.3
		c3.3,6,12.9,36.1,16.2,44.4c4.5,11.4,4.1,17.9,4.1,17.9l-21.1-0.5c-0.3-6.1-6.1-17.7-6.1-17.7l-7.8-15.8l-2.2-4.5l-8.1-17.1H587
		c-0.8-2-2.3-6-2.7-9.5c-1.3-11.1,9.5-11.1,9.8-11.1c5.6,0.2,10.3,2.2,14.8,8.6c1,0,2.2,0,3,0c-6.6-12.9-10.3-16.9-14.6-24.2
		C515.7,31.7,380.1-2.6,260.6,26.4C412.1,4.4,527.5,69.5,585.2,166.9c-4.8,2.5-12.8,6.5-16.6,8.5c-1.7,0-7.8-0.2-9.9,0
		c-3.6,0.3-7,0.5-4.5,9.1c1.8,6.3,2.5,7.8,4,11.8c1.8,4.6,7.3,18.7,11.3,30.8c-1.3,0.3-2.8,0.5-4.1,0.8c-0.8-2.2-1.7-4.5-2.5-6.8
		c-4.8-11.9-10.4-27.5-12.1-32.8c-0.8-2.7-2.2-8-0.7-12.4c0,0-5.8,4.5-0.7,16.6l12.9,35.8c-1.8,0.3-3.4,0.6-5.2,1c0,0,0,0,0,0.1
		c-39.1,8-77.6,18.4-99.2,27.4c0,0-16.2,6-27.7,15.3c-0.5,0.3-0.7,0.5-0.7,0.8c-3.2,0.8-6.3,3.2-8.5,6c-1.7,1.3-5.3,4.3-7,6.1
		c-4.5,5.3-8.5,9.9-13.6,16.9c-4.3,6.5-20.2,31.7-34.5,54.7c-1.2,0.5-2.3,1.2-3.5,2c-3.8,2.8-6.3,8-5.3,13.3
		c-11.4,18.7-18.2,29.5-21.1,34c-6.3,0.5-9.5,5.5-9.8,6.1c-2.8,5.5-14.9,25.4-17.1,27.5c-1.3,1.2-4.3,6.5-3,12.6l-1.2,2.2
		l-26.5,39.6c-2.3,3.2-2.7,6.8-1,10.3c2.2,4.6,7.6,8.1,13.3,8.5c3,0.2,5.8-0.7,8-2.2c10.8,1.8,85.1,14.2,141.1,23.5
		c0-0.1,0-0.1,0-0.2c2.3,0.3,4.6,0.8,7,1.2c0,0.1,0,0.1,0,0.2c0,0,0,0,0,0l0.2,0c3.6,0.6,7.3,1.1,10.6,1.7c0-0.1,0-0.2,0-0.3
		c3.2,0.5,6.1,1,9,1.5c-1.3,16.2-5.5,30.5-11.6,42.8l2.5,0.3c39.1,3.2,66.8-3.8,86.1-16.7c1.7,3.2,3.5,6.1,5.3,9.1
		C534.2,583.4,514.9,589.8,491,591.3z M442.5,451.6c6.3,19.2,12.9,33.1,15.9,45.5c-2.5-14.6-6.5-26.9-10.8-43.2
		c16.9,7.3,33.5,9.6,48.6,10.4c0.7,0.2,1.5,0.2,2.2,0.2l1,2.2c-6.1,15.9-17.2,33-31.7,43.4c0.2,0.8,0.2,1.7,0.2,2.5
		c-4.1-0.7-8.6-1.5-13.1-2.2c0-0.1,0-0.1,0-0.2c-3.3-0.5-6.7-1.1-10.1-1.6l0,0c0,0,0,0.1,0,0.1c-1.7-0.3-3.3-0.5-5-0.8
		c0.3,0.1,0.6,0.1,0.9,0.2l-0.9-0.1c-51.1-8.1-113.4-18.1-124.9-19.9l12.1-17.7c15.6,9.3,37.8,23,37.8,23
		c15.4,9.8,27.2-4.1,30.8-9.1c2.8-3.8,11.8-15.8,11.4-26c-0.3-9.9-8-15.3-14.8-19.7l-31.7-20.9c3-4.6,7.8-12.4,14.9-24
		c14.3,14.3,30.7,29.8,30.8,30c9.8,10.4,19.6,18.2,29.5,24v0L442.5,451.6z M352.4,426.7l35.5,23.5c5.3,3.8,10.6,10.4,7.5,19.2
		c-0.5-8.1-10.8-14.8-10.8-14.8s-38.1-22.4-49.7-29.7v0c-6.6-4.1-6-9.9-2.5-13.1C331.9,421.2,345.8,428.5,352.4,426.7z M399.8,466.1
		c1.2-6.8-1.8-13.6-9.8-18.9c-7-4.6-34-22.7-34-22.7l2.8-2.8c12.1,8,28.2,18.4,35.2,23.7v0C406.5,454.9,399.8,466.3,399.8,466.1z
		 M332.5,428.2c11.8,7.5,36.5,22.4,43.6,26.4c7.8,4.3,9.3,6.3,9.3,6.3c8.8,8.5,7.1,16.9,2.8,22.7c-5,6.6-14.4,10.9-22.2,5.6
		l-10.6-6.6l-3.8-2.3l-33.2-20.4l-0.2-0.2c0,0-5.5-2.5-7.1-7.6c-0.8-3.5,0.2-7.5,3.3-11.8c7-9.8,10.4-15.4,11.9-18.1
		C327.9,425.5,332.5,428.2,332.5,428.2z M322.4,468c-5.3,7.8-24.4,36.1-24.4,36.1c-1.7,2.8-4.5,3.2-6.5,3.2
		c-3.8-0.3-7.8-2.8-9.3-5.8c-0.8-1.8-0.7-3.6,0.7-5.5l25.2-38.6C309.6,460.3,322.4,468,322.4,468z M352.3,421.2L352.3,421.2
		c-2.7,2.2-8.1,0-11.4-3.3c-0.8-0.7-4.6-4.6-2.3-7.3l0.2-0.2l0.2-0.2c0.3-0.5,4.5-7.5,20.4-33.3c4.8,6.6,12.4,13.6,12.4,13.6
		L352.3,421.2z M773.1,617.4c-0.3,3.5-1.8,6.3-4.3,7.6c0,0-5.8,2.7-11.6-0.3c0,0,0.2,0.5-6.1,2.7c-39,9.9-80.7,10.6-115.9,1.3
		c-31.8-8.5-69.6-26.9-90.5-73.3c0,0-2.7-5-3.3-7.5c0,0,10.8,0.3,17.7-0.3c32.5,69.6,116.4,82.6,188.2,64.2c0,0,6.6-1.2,8.5-3.2
		c1.5-3.3,1.3-12.3,1.3-12.3c0-2-1.7-44.9-9.6-73.5c-0.8-3.2-1.7-5-2.5-5.6c0,0-2.2-1-3.6-1c-4,0-9,1-9,1
		c-44.3,10.4-112.9,19.2-167,24.7c-0.2,0-4.3,0.7-11.6,1l-5.8,0.2c-10.3,0-24.7-0.5-43.1-3.5c0,0-201.8-32.8-201-32.8l10.8-14.8
		l194.3,31.8c29.7,4.3,43.4,2.2,43.8,2.2c52.2-3,149.1-17.2,172.4-23.5c0,0,12.6-3,14.3-4.6c1-1.2-1.7-10.6-1.7-10.6
		c0-0.3-9.5-31.3-14.3-43.3v0.3c-0.2-0.5-2.2-7.1-4.3-8.1h-1.7c0,0-2.7,0.5-6.1,1.3c-45.6,8.3-129,19.9-177.9,22.9
		c4.3-0.3-19.7,0.8-38.5-0.5c-26.7-1.5-56.2-8.1-85.6-40c-0.3-0.3-32.8-31.3-45.9-45.6c-3.3-4.6-1.7-9.8,1.8-12.4
		c2.5-2,7.3-2.8,9.9,0.3c5.8,7.8,38.6,41.6,54.9,56.9c17.9,14.1,30.8,21.4,56,24.2c13.6,1.7,29.7,1.5,30.5,1.5
		c33.2,0.8,153.9-13.9,189.4-20.9c4.5-0.7,7.1-1.7,7.1-1.7v-0.7l0.2-1.5c0-0.5,2.2-2.2,3.8-3c3.3-1.5,7.6-1.5,11.3,1.5
		C753.8,465.2,778.9,551.9,773.1,617.4L773.1,617.4z M562.7,547.1c2.8-0.3,4.5-0.7,4.5-0.7c3-0.2,6-0.5,9-0.8
		c-2.3,4-5.1,7.8-8.1,11.3c-1.3-2-2.5-4.1-3.6-6.3L562.7,547.1z M696.1,529.8c3.3-0.7,16.9-3.6,16.9-3.6
		c14.4,21.7,37.6,37.3,37.6,37.5c0.7,5.3,1.2,19.2,1.2,19.2C715.4,565,696.1,529.8,696.1,529.8z M502.5,464.7
		c10.3,1.2,18.2,0,18.4,0.2l26.5,57c0,0-6.8,1.2-18.2,0.3C523.7,512.1,517.7,498.1,502.5,464.7z M580.1,460L580.1,460
		c3.6-0.3,7.3-0.7,10.8-1.3c0.5,3.3,0.8,6.6,1,9.8c0.2,0.8,0.2,1.7,0.2,2.5l78.9,13.6c1.5,4.3,7.1,17.1,7.1,17.1L592.2,487
		c0,0.8,0,1.8,0,2.7c-0.7,9.9-2,19.4-4.5,28.4c-3.8,0.3-7.6,0.8-11.4,1.2C582.1,500.6,582.6,479.9,580.1,460z M701.1,502.3
		c-2.7,1.2-15.9,3.2-15.9,3.2c-3.2-6-23.2-55-23.2-55c2.3-0.3,15.8-2.5,15.8-2.5C688,476.3,701.1,502.3,701.1,502.3z M699,487.2
		c20.1,0.3,34.7,0.2,34.7,0.2l0,0c2.5,9-5.8,9.3-6,9.3l-22.7,4.5L699,487.2z M813.9,612.9c-8.6,2.3-36.1,9.6-36.1,9.6
		c1.5-6.6,1.2-17.2,1.2-17.2c53.2-11.4,2.7-16.2,2.7-16.2c11.8,3.6,11.4,7.8,11.4,7.8c-5.1,0.3-14.1-2.3-14.1-2.3
		c0.2-3.3-0.7-16.9-0.7-16.9c13.8,6,16.1,4.3,30.3,7.5c14.6,3.3,7.5,9.3,7.5,9.3c-7.5,9.3-35.2,13.3-35.2,13.3
		c46.3-6.1,42.1-18.7,42.1-18.7v0C842.1,601.1,823.3,609.9,813.9,612.9z M835.4,595.1c0-3.5-5.6-10.3-15.3-12.3c0,0,0.2-3.8-0.2-8.3
		c-2.5-24.4-11.3-69-11.3-69c13.8-4.5,12.4-32.3-10.8-32.2c-5.6-25.2-13.8-45.4-13.8-45.4c12.8-7,6.8-18.6,0-20.9
		c0,0,12.6-2.7,18.4,19.2C823.7,485.7,840.1,567.1,835.4,595.1z"/>
	<path class="st1" d="M371.3,550.9c-3.5,6.8-11.3,2.5-10.8-1.7c0.2-1,0.7-0.5,0.8,0.2c2,3.2,7.5,3.3,9.1,1
		C371.3,549.2,371.3,550.9,371.3,550.9z M375.1,549.1c-0.2,5-4.1,9.1-9.1,9.1c-5,0-9.1-4.1-9.1-9.1c0-5,4-9.1,9.1-9.1
		C371,539.9,375.1,544.1,375.1,549.1z M373.2,549.1c0-4.1-3.3-7.3-7.3-7.3c-4,0-7.3,3.2-7.3,7.3c0,4,3.3,7.3,7.3,7.3
		C369.8,556.3,373.2,553.2,373.2,549.1z M360.4,536c-2,2-0.3,3.3,1.2,2.3c3.3-2.3,9.3-1.2,11.6,1.5c1.3,2,3,0.3,1.3-2.2
		C371.3,532.8,364.2,532.6,360.4,536z M367.5,531.3c10.3,0.5,13.6,11.1,9.6,19.6c9.1-9.3,1.5-23.2-9.3-23.2v0
		c-15.3,0.2-16.4,16.2-12.8,19.6C353.3,541.6,356.7,530.8,367.5,531.3z M224.3,573.4c-3.2-0.8-6.3-4-6.8-7.1
		c-0.2-1.8-1.7,0.2-1.7,0.2c-1.8,2.8,2.8,9.1,8,8.6v0C225.3,574.9,225.1,573.8,224.3,573.4z M226.1,564.6c3.8,4.1,4.5,9.8,1.5,12.6
		c-3.2,3-8.8,2-12.6-2.2c-3.8-4.1-4.5-9.8-1.5-12.6C216.5,559.7,222.1,560.5,226.1,564.6z M224.6,565.8c-2.7-3.2-7.3-4.6-9.9-2.2
		c-2.3,2.3-2,7.1,1.3,10.1c3.2,2.8,7.5,4.5,9.9,2.5C228.9,574.1,226.9,568.3,224.6,565.8z M444.6,508.6c3.4,0.5,6.8,1.1,10.1,1.6
		c-1.1-5.2-2.3-9.8-3.1-13.9c-1.8-8.5-9.1-26.7-15.8-48.7v0c-9.9-5.8-19.7-13.6-29.5-24c-0.2-0.2-16.6-15.8-30.8-30
		c-7.1,11.6-11.9,19.4-14.9,24l31.7,20.9c6.8,4.5,14.4,9.8,14.8,19.7c0.3,10.3-8.6,22.2-11.4,26c-3.6,5-15.4,18.9-30.8,9.1
		c0,0-22.2-13.8-37.8-23l-12.1,17.7c11.4,1.8,73.8,11.8,124.9,19.9l0.9,0.1c-0.3-0.1-0.6-0.1-0.9-0.2c-2.8-19.7-9.3-37.9-13.1-53.5
		C433.3,469.1,440.6,488,444.6,508.6L444.6,508.6z M224.4,556.5c-2.5-0.8-3.2,2.5-1.2,2.8c2,0.3,5.5,3.5,6.6,5.8
		c1,2.2,3.3,0.3,1.2-3.5C230.2,560.2,226.7,557.3,224.4,556.5z M563,253.4c-30.7,6.5-62.8,14.1-90.5,25.5
		c-9.6,3.5-17.2,8.5-24.7,13.3c2.1,4.7,4.7,10.4,7.6,16.9c7.2-7,14.3-11.8,19.7-15.1c1-0.7,3.3-2.2,3.3-2.2
		c18.2-9.8,29.5-15.3,58.4-18.9c-0.2,0,7.1-1,7.1-1c5-0.8,14.4-2.8,17.1-7.6C562.7,261.4,563.2,257.8,563,253.4z M417.9,324.6
		c0.2,0-14.1,22.9-29,46.8c10.5,11.2,25.9,26.9,37.6,38.1c-2.6-16.8-3.2-34.1,0.4-50.1c2.3-10.9,6.3-20.4,11.1-28.5l0.1,0.2
		c0,0,0-0.1,0.1-0.1l-9.9-22.1C425.9,312.2,421.9,318.5,417.9,324.6z M457.9,536.7c0.3,10.9-0.7,22.4-4.8,33.7
		c-2.2,6.3-4.8,11.8-9.1,17.9c0,0-0.5,0.7-0.3,0.7c-9.3,13.9-21.7,24.4-36.1,32c-56.2,29.3-142.8,13.4-195.3-23.4
		c-1.3-1-2.8-2-4.1-3c-1-0.7-1.9-1.4-2.9-2.1c-0.4-0.3-0.8-0.6-1.2-0.8c0,0,0,0,0,0c-10.7-7.5-19.8-11.8-28.6-13.9
		c-0.2,0-0.3-0.1-0.5-0.1c-0.3-0.1-0.7-0.1-1-0.2c-7.2-1.5-14.2-1.5-21.7-0.3c-6.1,1-12.6,2.7-19.7,4.8c-4.9,1.5-8.9,2.3-12.4,2.6
		c-18.6,1.6-17.8-11.4-17.8-11.4c-26.4-37.8-50.7-77.9-71.6-153.9C3.2,310.3,24.3,219.1,72.4,151.2c0.2-0.2,0.3-0.5,0.5-0.7
		c0.3-0.5,0.7-0.8,1-1.3c31.1-43.1,73-76.7,120.2-99.5c13.7-6.5,27.9-12.2,42.4-16.8c46.1-7.8,88.9-5.1,127.5,4.6
		c0.3,0,0.5,0.2,0.8,0.2c0.5,0.2,0.8,0.3,1.3,0.3c38.3,9.9,72.3,27,101,47.8c34.9,25.2,62.1,55.8,80,86.1c-0.3,0.2-0.5,0.4-0.8,0.6
		c-0.3,0.2-0.5,0.4-0.8,0.7c-0.4,0.4-0.8,0.8-1.2,1.3c-0.2,0.3-0.5,0.5-0.7,0.8c-0.8,1.2-1.2,2.5-1.5,3.8c-0.5,2.8-0.3,5.8,0.3,8.5
		c0.7,3,1.7,5.6,2.3,7.3c0.3,0.7,0.5,1.2,0.7,1.3c0,0,8.8,25,11.4,33c0,0,0.1,0,0.1,0c0,0,0,0,0,0.1c-39.1,8-77.6,18.4-99.2,27.4
		c0,0-16.2,6-27.7,15.3c-0.5,0.3-0.7,0.5-0.7,0.8c-3.2,0.8-6.3,3.2-8.5,6c-1.7,1.3-5.3,4.3-7,6.1c-4.5,5.3-8.5,9.9-13.6,16.9
		c-4.3,6.5-20.2,31.7-34.5,54.7c-1.2,0.5-2.3,1.2-3.5,2c-3.8,2.8-6.3,8-5.3,13.3c-11.4,18.7-18.2,29.5-21.1,34
		c-6.3,0.5-9.5,5.5-9.8,6.1c-2.8,5.5-14.9,25.4-17.1,27.5c-1.3,1.2-4.3,6.5-3,12.6l-1.2,2.2l-26.5,39.6c-2.3,3.2-2.7,6.8-1,10.3
		c2.2,4.6,7.6,8.1,13.3,8.5c3,0.2,5.8-0.7,8-2.2c10.8,1.8,85.1,14.2,141.1,23.5c-6.9,59.7-70.2,88.2-126,83.1
		c-30.7-1.3-66.7-14.1-92.5-27.4c-12.6-7.3-42.6-23-54.7-23.7c13.8,3,42.6,19.2,52.9,26c22.2,12.1,59.5,29,94.3,30.3
		c83.6,5.3,130.4-40.2,133-87.2l0.2,0C450.9,535.6,454.5,536.1,457.9,536.7z M350.8,541.3c0,5,2.2,9.5,5.5,12.4v0
		c1.7,3.8,5.5,6.5,9.8,6.5c3.2,0,5.8-1.3,7.8-3.5c6-2.5,10.1-8.3,10.1-15.3c0-9.3-7.5-16.6-16.6-16.7
		C358.2,524.7,350.8,532.1,350.8,541.3z M237.4,554.7c-5.5-7.6-15.1-10.4-21.4-6l0,0c-4.1,3-6,8.8-5.1,14.6c-1.8,3.6-0.7,9,3.2,13.1
		c4.1,4.3,9.9,5.6,13.6,3.3c3.3,0.3,6.6-0.5,9-2.5C242.5,572.3,242.8,562.5,237.4,554.7z M229.6,486.7c7.5,8,17.7,12.4,27.9,12.6
		c3.6,0,7.3-0.5,10.6-1.7l22.4-33.2c-0.2-9.9-4.1-20.1-11.8-28c-7.5-8-17.7-12.6-27.9-12.6c-9,0-17.2,3.3-23.4,9.6
		C213.8,447.4,214.8,471.3,229.6,486.7z M203.9,521.7c31.3,40.3,86.7,40.5,114.6,10.9C306.7,538.4,257.1,570.9,203.9,521.7z
		 M213.5,558.7c8.6-13.3,30.2,3.5,19.1,17.9C249.3,564.3,220.8,536.9,213.5,558.7z"/>
	<path class="st2" d="M365.9,541.8c-4,0-7.3,3.2-7.3,7.3c0,4,3.3,7.3,7.3,7.3c4,0,7.3-3.2,7.3-7.3
		C373.2,544.9,369.8,541.8,365.9,541.8z M371.3,550.9c-3.5,6.8-11.3,2.5-10.8-1.7c0.2-1,0.7-0.5,0.8,0.2c2,3.2,7.5,3.3,9.1,1
		C371.3,549.2,371.3,550.9,371.3,550.9z M608.1,208.5c-3.6-3.6-5.5-7.5-5.8-13.3C607.9,196.4,611.6,203.5,608.1,208.5z M457.7,581.1
		l-2.5-0.3c6.1-12.3,10.3-26.5,11.6-42.8c-2.8-0.5-5.8-1-9-1.5c0.3,10.9-0.7,22.5-4.8,34c-2.2,6.3-4.8,11.8-9.1,17.9
		c0,0-0.5,0.7-0.3,0.7c-9.3,13.9-21.7,24.4-36.1,32c-56.2,29.3-142.8,13.4-195.3-23.4c-1.3-1-2.8-2-4.1-3
		c-22.2-16.4-37.6-20.2-55.9-17.4c-6.1,1-12.6,2.7-19.7,4.8c-31.5,9.6-30.3-8.8-30.3-8.8c-26.5-37.6-50.9-77.9-71.6-153.9
		C3.2,310.3,24.1,219.1,72.2,151.1c0.2-0.2,0.3-0.5,0.5-0.7c0.3-0.5,0.7-0.8,1-1.3c40-55.7,98.2-95.5,162.8-116.2
		c46.1-7.8,88.9-5.1,127.5,4.6c0.3,0,0.5,0.2,0.8,0.2c0.5,0.2,0.8,0.3,1.3,0.3c38.3,9.9,72.3,27,101,47.8
		c35,25.2,62.2,55.9,80.1,86.2c-0.3,0.2-0.7,0.5-1.2,0.8c-0.7,0.5-1.2,1-1.7,1.7c-0.2,0.3-0.5,0.5-0.7,0.8c-0.8,1.2-1.2,2.5-1.5,3.8
		c-0.5,2.8-0.3,5.8,0.3,8.5c0.7,3,1.7,5.6,2.3,7.3c0.3,0.7,0.5,1.2,0.7,1.3c0,0,8.8,25,11.4,33c1.8-0.3,3.5-0.7,5.3-1l-12.9-35.8
		c-5.1-12.1,0.7-16.6,0.7-16.6c-1.5,4.5-0.2,9.8,0.7,12.4c1.7,5.3,7.3,20.9,12.1,32.8c0.8,2.3,1.7,4.6,2.5,6.8
		c1.3-0.3,2.8-0.5,4.1-0.8c-4-12.1-9.5-26.2-11.3-30.8c-1.5-4-2.2-5.5-4-11.8c-2.5-8.6,0.8-8.8,4.5-9.1c2.2-0.2,8.3,0,9.9,0
		c3.8-2,11.8-6,16.6-8.5C527.5,69.5,412.1,4.4,260.6,26.4c119.5-29,255.2,5.3,336.8,121.7c4.3,7.3,8,11.3,14.6,24.2c-0.8,0-2,0-3,0
		c-4.5-6.5-9.1-8.5-14.8-8.6c-0.3,0-11.1,0-9.8,11.1c0.3,3.5,1.8,7.5,2.7,9.5h0.2l8.1,17.1l2.2,4.5l7.8,15.8c0,0,5.8,11.6,6.1,17.7
		l21.1,0.5c0,0,0.3-6.5-4.1-17.9c-3.3-8.3-12.9-38.5-16.2-44.4c0-0.2-0.2-0.2-0.2-0.3c1,0,5.1,0,7.5,0.7
		c4.1,10.4,10.1,28.5,14.8,42.8c0,0,5.3,0.3,5.3,0.2c1.8,0.2,9,0.8,11.6,1.3L630,173.8l-4.8,2c-0.8-1.7-2.3-2.7-4.5-3
		c-0.7-0.2-1.3-0.2-2-0.3C443.1-141-97.2,32.7,32.9,447.4c9.1,29.2,20.4,54.6,31.2,75.1c-1,3.8-2.3,10.8-0.2,20.1
		c3.5,13.3,6.5,21.4,17.2,44.9c-4.3,15.9,10.6,39.3,46.8,32.3c42.9-6.6,65.5-22.2,70.6-26.2c1.5,1,3,2.2,4.3,3.2
		c76.3,59.5,201,64.2,246.9-6.1c18.4,3.8,41.3,0.7,41.3,0.7c23.9-1.5,43.1-8,58-17.9c-1.8-3-3.6-6-5.3-9.1
		C524.5,577.2,496.8,584.2,457.7,581.1z M615.1,203.7L615.1,203.7c1.8,8.3-4.1,12.8-10.1,6c-2.5-2.8-3.6-5.5-4.8-9l-0.2-0.5
		c-1-4.3-0.5-8-0.5-8c-1.8-1.7-3.2-3.2-4-4.5c-0.3-0.3-0.7-0.7-0.8-1c-1.5-2.2-2.5-4.3-2.8-5.8c-0.2-0.5-0.2-1-0.3-1.2
		c0-0.2,0-0.3,0-0.3c-0.2-1.5-0.3-2.7-0.3-3.8c0-2.2,0.5-3.5,1-4.3c0.2-0.3,0.3-0.5,0.5-0.7c0,0,0.2,0,0.2-0.2
		c0.2-0.2,0.2-0.2,0.3-0.3c1.5-1,3.5-0.5,3.5-0.5c5.3,0.7,11.3,8.3,11.3,18.9v1.3C611.1,193.2,613.4,196.2,615.1,203.7z
		 M191.4,593.3c-12.8,9.1-42.4,20.2-69,22.7c-26.9,4.3-41.9-14.6-36.6-28.9c0,0,0,0-1.5-3.6c-1.5-3.5-18.7-38.6-16.7-53.9
		c14.3,26,26.7,42.8,30.5,46.6c0.2,0.7,0.3,1.2,0.5,1.8c-0.3,3.8,0.5,15.1,22.5,10.9c-6.6,12.9-31.7,5.8-26.9-11.3
		c-3.6-4.5-12.4-18.9-12.4-18.9c-0.3,0.2,0.5,4.3,0.3,4c3,6.1,8.1,16.9,8.1,16.9c-4,25,32.2,27,34.7,8.6h0.2c1.8-0.3,1.8,0,3.2-0.7
		c-1.5,7.5-5.1,11.6-9.5,13.8c-7.8,4-9.9,10.8,1.8,9.9c11.9-0.8,33.2-4.1,58-16.4l5.3-2.8c-10.6-6.6-21.7-7.8-29.3-8.3
		c-6-0.5-15.4,1.2-22.4,2.7c0.5-0.2,0.8-0.3,1.3-0.5c29-9.9,46.6-4,60.9,5.1C193.6,591.8,192.6,592.5,191.4,593.3z M600.8,189.1
		c-3.2-2-7.8-8.6-7-14.1C601,175,603,185.4,600.8,189.1z M394,445.4L394,445.4c12.4,9.5,5.8,20.9,5.8,20.7
		c1.2-6.8-1.8-13.6-9.8-18.9c-7-4.6-34-22.7-34-22.7l2.8-2.8C371,429.7,387.1,440.1,394,445.4z M492.2,438.5
		c-31.3-68.3-67.8-148.4-67.8-148.7c-1.5-2.7-1.5-5.3,0-8c2-3.3,6.1-5.3,8.8-5.3c2,0,3.6,0.7,3.8,0.8l73.3,162.3
		C510.3,439.6,500.2,440.1,492.2,438.5L492.2,438.5z M732.1,414.6c-2.8-2.3-5.8-2.7-6.5-2.7c8.1,0.5,32-1.8,32-1.8
		C753.2,411.9,732.1,414.6,732.1,414.6z M667.6,411.6c26.2,3.6,45.8,1.5,45.8,1.5c-4.5,0.7-4.8,4.8-4.8,4.8v0
		c-10.8,2.7-35.8,5.5-35.8,5.5L667.6,411.6z M658.5,222.9c1.8,0.3,3.6,0.3,10.9,2.5c9.5,2.8,11.1,24-7,22.2c-3-0.3-5.8-0.7-8.1-1
		c-3.2-0.5-7-1.2-11.4-1.5l-1-0.2c4.6,17.9,3.3,42.1-20.9,47.4c12.4-5.5,1.5-9.3,1-9.5c-26-6-69.5,2-74.3-1.2
		c27.9-2.7,30-16.6,27.7-31c-1.5,0.3-2.8,0.7-4.3,0.8c2.7,15.1-3.6,20.7-11.9,23.9c-12.8,4.3-21.9,4.5-22.4,4.5l-8.3-0.3
		c3.6-1.2,10.8-1.5,19.4-3.3c13.4-2.8,21.2-8.6,20.2-24c-1.7,0.3-3.5,0.7-5.1,1c0.2,4.5-0.3,8.1-2,10.9c-2.7,4.8-12.1,6.8-17.1,7.6
		c0,0-7.3,1-7.1,1c-28.9,3.6-40.1,9.1-58.4,18.9c0,0-2.3,1.5-3.3,2.2c-5.5,3.3-12.8,8.3-20.1,15.4c0.8,1.8,1.7,3.6,2.5,5.6
		c3.3-3.3,7-6.5,10.9-9.6c0,0,8.1-7.1,18.4-11.6c-14.6,9.5-23.7,18.6-28.2,23.5c11.6,25.7,27.2,60,42.4,93.8
		c-3.5-26.2,46.8-46.1,65-2.7c3.5,8.3,6.6,17.6,9.1,27.2c3.6-0.3,7.3-0.7,11.1-1.2c-1.2-4.8-2.5-9.8-4.1-14.6
		c-2.7-11.1-4.6-26.7-4.6-43.1c0-0.8,0-1.7,0-2.5c7.6,8.8,34.8,38.3,67.3,47.8l-8.1-19.9c0,0-32.8-13.9-57-51.4
		c0.3-1.8,0.7-3.3,0.8-4.1c2.8-13.8,7.6-26.7,15.6-36.6c0.5-0.7,1-1.2,1.5-1.8c0.5-0.7,1.3-1.8,2.7-3.2l51.6,121c0,0,8.6-0.7,16.4-2
		c0,0-40.8-96.7-53.2-126.2c0.8-0.2,1.7-0.2,2.7-0.3c0.3,0,0.8-0.2,1.2-0.2c0.8,0,1.5-0.2,1.8-0.2c12.3-2.2,18.7-7.8,23.5-16.2
		c4-7.3,4.6-17.1,4-24.9c0.7-0.8,1.3-1.7,2.2-2.3c1-1,2.3-1.8,4.1-2.8c13.8,7.1,38.6-2.7,23.5-26.4l0,0l-32.2-58l-12.4,5.8
		l22.5,50.2L658.5,222.9z M571.3,390.2c-14.3-15.8-7.3-78.9,17.9-82.1C571.6,321.1,566,366.2,571.3,390.2z M735.8,419.1
		c10.9-1.8,24.9-4.6,34.5-7.5h0c3-0.8,8.6-1.7,8.8-1.8c4.3,0.8,6.1,3.3,6.6,6.8c0.2,1.3-0.5,6.3-6,7.3l-2,0.5
		c-5,1.7-14.8,4-24.7,5.8c-6.1,1.2-11.8,2.3-11.3,2C740.4,429.3,739.6,426.4,735.8,419.1z M441,337.3c-13.3,24.7-13.1,52.2-8,78.3
		c-0.5-0.3-0.8-0.7-1.3-1c-1.7-1.5-3.3-3.2-5.1-4.8h0c-2.7-16.9-3.3-34.3,0.3-50.4c2.3-10.9,6.3-20.4,11.1-28.5L441,337.3z
		 M760.5,485.7c0,0,23.5-4.5,31.3-6.3h0c0,0,16.6-5.6,20.2,7.1c0,0,3.5,10.8-5.8,14.8c0,0-7,3.6-38.8,9.3c0,0-2.7-9.9-3.8-15.1
		c0,0,27-5.6,37.5-9.6c0,0-0.3-3.6-5.5-3.5c0,0-27.4,6.8-33.7,7.5L760.5,485.7z M604.6,253.7c0,0,5.5-3.6,5.8-7.6
		c0,0,12.6,0,19.1,0.2C629.5,246.3,624.8,255.2,604.6,253.7z M636.5,239.5L636.5,239.5c0-6.3-3.8-15.3-4-15.4
		c8.3,0.8,29.7,3.3,34.2,4.8h0.2h0.2c3.3,0.5,5.1,4.6,4.8,8c-0.2,1.8-1.2,6-7.5,6C658.7,241.6,643.9,240.2,636.5,239.5z
		 M581.4,173.7c-0.2,1.8,0,2.8,2,8.3c3.2,8.6,19.7,43.3,21.7,48.2c9.6,25-15.3,29.7-17.9,18.6c26.4-2.2,15.8-29.8,0.7-25.9
		c-5.8-14.3-10.3-28.4-10.3-28.4h0c0,0-6-15.3-2-19.9l5.5-2.8l0.5-0.2C581.4,172.2,581.4,173.7,581.4,173.7z M458.9,261.2
		c26.7-11.1,82.1-25.4,129.8-33.2c5.1-0.7,9.5,2.8,9.9,6.5c0.5,3.3-1.2,7.1-7.5,8.1l-3,0.5c-38.3,7.6-81.6,16.2-117.9,31
		c-11.4,4.1-17.4,7.6-23.9,12.4c0,0-3.5-7.8-4.8-9.9v0c-2-3.5-2.3-3.8-4-4.6C443,268.3,449.8,265,458.9,261.2z M418.9,284.8
		c0,0-0.3,4,1.8,8.3c1.7,3.3,5.1,11.9,5.1,11.9c0.7-0.5-7.6,9.8-12.3,17.1l-27.9,45.8l-7.5-8.3h0c0,0-3.3-4-6.5-3.8
		c14.6-23.7,28-44.8,32.5-51.6C409.1,296.4,420.4,282.9,418.9,284.8z M439.8,420.7c-5-26-6.5-52.6,3.5-77.8l43.4,95.5h0
		C466.7,436.3,453.7,430.5,439.8,420.7z M571.5,176.6c-2.3,7.1,2,18.2,2,18.2l10.3,28.9l-5.5,1c0,0-6.8-18.6-10.9-31.3
		c-3.2-9.6-0.8-14.4-0.8-14.4L571.5,176.6z M442.5,451.6c6.3,19.2,12.9,33.1,15.9,45.5c-2.5-14.6-6.5-26.9-10.8-43.2
		c16.9,7.3,33.5,9.6,48.6,10.4c0.7,0.2,1.5,0.2,2.2,0.2l1,2.2c-6.1,15.9-17.2,33-31.7,43.4c0.2,0.8,0.2,1.7,0.2,2.5
		c-4.1-0.7-8.6-1.5-13.1-2.2c-1.2-5.3-2.3-9.9-3.2-14.1c-1.8-8.5-9.1-26.7-15.8-48.7L442.5,451.6z M529.2,522.2
		c-5.5-10.1-11.4-24-26.7-57.5c10.3,1.2,18.2,0,18.4,0.2l26.5,57C547.4,521.9,540.6,523,529.2,522.2z M751.9,582.9
		c-36.5-17.9-55.7-53.1-55.7-53.1c3.3-0.7,16.9-3.6,16.9-3.6c14.4,21.7,37.6,37.3,37.6,37.5C751.4,568.9,751.9,582.9,751.9,582.9z
		 M426.5,454.4c6.8,14.8,14.1,33.6,18.1,54.3c-1.7-0.3-3.3-0.5-5-0.8C436.8,488.2,430.3,470,426.5,454.4z M395.4,469.5
		c-0.5-8.1-10.8-14.8-10.8-14.8s-38.1-22.4-49.7-29.7v0c-6.6-4.1-6-9.9-2.5-13.1c-0.5,9.3,13.4,16.6,20.1,14.8l35.5,23.5
		C393.2,454,398.5,460.7,395.4,469.5z M371.7,390.5l-19.4,30.7h0c-2.7,2.2-8.1,0-11.4-3.3c-0.8-0.7-4.6-4.6-2.3-7.3l0.2-0.2l0.2-0.2
		c0.3-0.5,4.5-7.5,20.4-33.3C364,383.6,371.7,390.5,371.7,390.5z M773.1,617.4L773.1,617.4c-0.3,3.5-1.8,6.3-4.3,7.6
		c0,0-5.8,2.7-11.6-0.3c0,0,0.2,0.5-6.1,2.7c-39,9.9-80.7,10.6-115.9,1.3c-31.8-8.5-69.6-26.9-90.5-73.3c0,0-2.7-5-3.3-7.5
		c0,0,10.8,0.3,17.7-0.3c32.5,69.6,116.4,82.6,188.2,64.2c0,0,6.6-1.2,8.5-3.2c1.5-3.3,1.3-12.3,1.3-12.3c0-2-1.7-44.9-9.6-73.5
		c-0.8-3.2-1.7-5-2.5-5.6c0,0-2.2-1-3.6-1c-4,0-9,1-9,1c-44.3,10.4-112.9,19.2-167,24.7c-0.2,0-4.3,0.7-11.6,1l-5.8,0.2
		c-10.3,0-24.7-0.5-43.1-3.5c0,0-201.8-32.8-201-32.8l10.8-14.8l194.3,31.8c29.7,4.3,43.4,2.2,43.8,2.2
		c52.2-3,149.1-17.2,172.4-23.5c0,0,12.6-3,14.3-4.6c1-1.2-1.7-10.6-1.7-10.6c0-0.3-9.5-31.3-14.3-43.3v0.3
		c-0.2-0.5-2.2-7.1-4.3-8.1h-1.7c0,0-2.7,0.5-6.1,1.3c-45.6,8.3-129,19.9-177.9,22.9c4.3-0.3-19.7,0.8-38.5-0.5
		c-26.7-1.5-56.2-8.1-85.6-40c-0.3-0.3-32.8-31.3-45.9-45.6c-3.3-4.6-1.7-9.8,1.8-12.4c2.5-2,7.3-2.8,9.9,0.3
		c5.8,7.8,38.6,41.6,54.9,56.9c17.9,14.1,30.8,21.4,56,24.2c13.6,1.7,29.7,1.5,30.5,1.5c33.2,0.8,153.9-13.9,189.4-20.9
		c4.5-0.7,7.1-1.7,7.1-1.7v-0.7l0.2-1.5c0-0.5,2.2-2.2,3.8-3c3.3-1.5,7.6-1.5,11.3,1.5C753.8,465.2,778.9,551.9,773.1,617.4z
		 M568,556.8c-1.3-2-2.5-4.1-3.6-6.3l-1.7-3.5c2.8-0.3,4.5-0.7,4.5-0.7c3-0.2,6-0.5,9-0.8C573.8,549.5,571,553.4,568,556.8z
		 M813.9,612.9c-8.6,2.3-36.1,9.6-36.1,9.6c1.5-6.6,1.2-17.2,1.2-17.2c53.2-11.4,2.7-16.2,2.7-16.2c11.8,3.6,11.4,7.8,11.4,7.8
		c-5.1,0.3-14.1-2.3-14.1-2.3c0.2-3.3-0.7-16.9-0.7-16.9c13.8,6,16.1,4.3,30.3,7.5c14.6,3.3,7.5,9.3,7.5,9.3
		c-7.5,9.3-35.2,13.3-35.2,13.3c46.3-6.1,42.1-18.7,42.1-18.7v0C842.1,601.1,823.3,609.9,813.9,612.9z M835.4,595.1
		c0-3.5-5.6-10.3-15.3-12.3c0,0,0.2-3.8-0.2-8.3c-2.5-24.4-11.3-69-11.3-69c13.8-4.5,12.4-32.3-10.8-32.2
		c-5.6-25.2-13.8-45.4-13.8-45.4c12.8-7,6.8-18.6,0-20.9c0,0,12.6-2.7,18.4,19.2C823.7,485.7,840.1,567.1,835.4,595.1z M704.9,501.1
		l-6-13.9c20.1,0.3,34.7,0.2,34.7,0.2l0,0c2.5,9-5.8,9.3-6,9.3L704.9,501.1z M576.3,519.2c5.8-18.6,6.3-39.3,3.8-59.2v0
		c3.6-0.3,7.3-0.7,10.8-1.3c0.5,3.3,0.8,6.6,1,9.8c0.2,0.8,0.2,1.7,0.2,2.5l78.9,13.6c1.5,4.3,7.1,17.1,7.1,17.1L592.2,487
		c0,0.8,0,1.8,0,2.7c-0.7,9.9-2,19.4-4.5,28.4C583.9,518.4,580.1,518.9,576.3,519.2z M677.7,447.9c10.3,28.4,23.4,54.4,23.4,54.4
		c-2.7,1.2-15.9,3.2-15.9,3.2c-3.2-6-23.2-55-23.2-55C664.3,450.1,677.7,447.9,677.7,447.9z M368.2,461.3
		c10.3-0.3,18.6,10.1,13.3,17.7l-1.8,0.3c-9.1,1.3-14.3-2.3-15.8-10.4v0C365.4,468,367.7,465.2,368.2,461.3z M229.6,486.7
		c-14.8-15.4-15.8-39.3-2.2-53.2c6.1-6.3,14.4-9.6,23.4-9.6c10.1,0,20.4,4.6,27.9,12.6c7.6,8,11.6,18.1,11.8,28L268,497.6
		c-3.3,1.2-7,1.7-10.6,1.7C247.3,499.1,237,494.7,229.6,486.7z M318.4,532.6c-27.9,29.5-83.2,29.3-114.6-10.9
		C257.1,570.9,306.7,538.4,318.4,532.6z M214,576.4c4.1,4.3,9.9,5.6,13.6,3.3c3.3,0.3,6.6-0.5,9-2.5c6-5,6.3-14.8,0.8-22.5
		c-5.5-7.6-15.1-10.4-21.4-6l0,0c-4.1,3-6,8.8-5.1,14.6C209,567,210.2,572.3,214,576.4z M229.9,565.1c-1.2-2.3-4.6-5.5-6.6-5.8
		c-2-0.3-1.3-3.6,1.2-2.8c2.3,0.8,5.8,3.6,6.6,5.1C233.2,565.5,230.9,567.3,229.9,565.1z M232.5,576.6
		c11.1-14.4-10.4-31.2-19.1-17.9C220.8,536.9,249.3,564.3,232.5,576.6z M213.5,562.5c3-2.8,8.6-2,12.6,2.2c3.8,4.1,4.5,9.8,1.5,12.6
		c-3.2,3-8.8,2-12.6-2.2C211.2,570.9,210.5,565.3,213.5,562.5z M440.1,533.6c2.3,0.3,4.6,0.8,7,1.2c-2.5,47.1-49.2,92.7-133,87.4
		c-34.8-1.3-72.1-18.2-94.3-30.3c-10.3-6.8-39.1-23-52.9-26c12.1,0.7,42.1,16.4,54.7,23.7c25.9,13.3,61.8,26,92.5,27.4
		C370,622,433.3,593.5,440.1,533.6z M216,573.8c3.2,2.8,7.5,4.5,9.9,2.5c3-2.2,1-8-1.3-10.4c-2.7-3.2-7.3-4.6-9.9-2.2
		C212.3,566,212.7,570.8,216,573.8z M215.8,566.5c0,0,1.5-2,1.7-0.2c0.5,3.2,3.6,6.3,6.8,7.1c0.8,0.3,1,1.5-0.5,1.7v0
		C218.6,575.6,214,569.3,215.8,566.5z M357.4,464c0-0.7,0.2-2,0.2-2c-1.5,0-2.8-0.5-4.1-1.2c0-4,0.8-7.5,2.5-10.4
		c5.1,1.7,9,6.1,8.6,10.8h0.7c-0.5,3.5-4,8.1-11.3,7c-0.3-1.5-0.5-3-0.5-4.6C354.6,463.8,355.9,464,357.4,464L357.4,464z M322.4,468
		c-5.3,7.8-24.4,36.1-24.4,36.1c-1.7,2.8-4.5,3.2-6.5,3.2c-3.8-0.3-7.8-2.8-9.3-5.8c-0.8-1.8-0.7-3.6,0.7-5.5l25.2-38.6
		C309.6,460.3,322.4,468,322.4,468z M344,452.6c2.3-2,4.1-2.8,7.6-2.7c-1.3,2.3-2,5.8-2.2,9.3c-0.7-0.5-1.3-0.5-2-1.3v2.5
		c0.5,0.8,1.2,1,2.2,1.7c0,2.2,0,3.8,0.5,5.3c-0.5-0.2-0.8-0.7-1.3-0.8v0C341.5,462.3,344,452.6,344,452.6z M341.3,455.7
		c-1.2,15.1,12.6,17.2,20.2,14.4c1.7,12.1,12.3,12.4,17.4,11.6c-6.5,4.1-18.7,1.3-21.1-10.1C348.1,474.6,337.2,466.8,341.3,455.7z
		 M355.4,482.6l10.6,6.6c7.8,5.3,17.2,1,22.2-5.6c4.3-5.8,6-14.3-2.8-22.7c0,0-1.5-2-9.3-6.3c-7.1-4-31.8-18.9-43.6-26.4
		c0,0-4.6-2.7-6.1-6c-1.5,2.7-5,8.3-11.9,18.1c-3.2,4.3-4.1,8.3-3.3,11.8c1.7,5.1,7.1,7.6,7.1,7.6l0.2,0.2l33.2,20.4L355.4,482.6z
		 M339.3,467.8c-3.2-5.6-0.8-11.9-0.8-11.9h0c1-2.8,3.2-8,12.4-8.5c11.6-0.3,15.6,8.6,16.4,11.8c7.6-1,13.4,4.1,13.6,4.3
		c9.3,9.1,3,17.4,2.8,17.6c0,0.2-7.8,10.6-21.7,2.3c-1.8-1.2-3.6-2.8-4.6-4.8c-1.2-2.2-1.7-3.6-1.7-3.6
		C344,476.8,339.5,468,339.3,467.8z M366,560.2c3.2,0,5.8-1.3,7.8-3.5c6-2.5,10.1-8.3,10.1-15.3c0-9.3-7.5-16.6-16.6-16.7
		c-9.1,0-16.6,7.5-16.6,16.6c0,5,2.2,9.5,5.5,12.4v0C357.9,557.5,361.7,560.2,366,560.2z M366,558.2c-5,0-9.1-4.1-9.1-9.1
		c0-5,4-9.1,9.1-9.1c5,0,9.1,4.1,9.1,9.1C375,554,371,558.2,366,558.2z M373.2,539.8c-2.3-2.7-8.3-3.8-11.6-1.5
		c-1.5,1-3.2-0.3-1.2-2.3c3.8-3.3,10.9-3.2,14.1,1.7C376.1,540.1,374.5,541.8,373.2,539.8z M355.1,547.2
		c-3.6-3.3-2.5-19.4,12.8-19.6v0c10.8,0,18.4,13.9,9.3,23.2c4-8.5,0.7-19.1-9.6-19.6C356.7,530.8,353.3,541.6,355.1,547.2z"/>
</g>
</svg>
