<?xml version="1.0" encoding="utf-8"?>
<!-- Generator: Adobe Illustrator 26.0.2, SVG Export Plug-In . SVG Version: 6.00 Build 0)  -->
<svg version="1.1" id="Layer_1" xmlns="http://www.w3.org/2000/svg" xmlns:xlink="http://www.w3.org/1999/xlink" x="0px" y="0px"
	 viewBox="0 0 737.2 401.8" style="enable-background:new 0 0 737.2 401.8;" xml:space="preserve">
<style type="text/css">
	.st0{fill:#FFB612;}
	.st1{fill:#5A1414;}
</style>
<g>
	<path class="st0" d="M503.4,0l23.6,72.2l-17.5,53.7L468.5,0H285l-32.9,100.9L219.3,0H0l68.9,111.9l94.4,289.9h177.6l35.7-109.6
		l35.6,109.6h194.3L737.2,0H503.4z M93.4,100.5L48,26.8h151.8L238,144.3l-65.2,200.1L93.4,100.5z M321.3,375.6H190.9L297.4,48.5
		l65.1,200.4L321.3,375.6z M318.6,26.8H449l46.4,142.5l-65.3,200.6L318.6,26.8z M586.8,375.4H456.4l98.6-303l-14.8-45.6h160
		L586.8,375.4z"/>
	<path class="st1" d="M238,144.3l-65,200.1L93.4,100.5L48,26.8h151.8L238,144.3z M190.9,375.4h130.5l41.2-126.6L297.4,48.5
		L190.9,375.4z M449,26.8H318.5L430,370l65.3-200.6L449,26.8z M540.2,26.8L555,72.4l-98.6,303h130.3L700.2,26.8H540.2z"/>
</g>
</svg>
